<?xml version="1.0" encoding="utf-8"?>
<!-- Generator: Adobe Illustrator 26.5.1, SVG Export Plug-In . SVG Version: 6.00 Build 0)  -->
<svg version="1.1" id="레이어_1" xmlns="http://www.w3.org/2000/svg" xmlns:xlink="http://www.w3.org/1999/xlink" x="0px"
	 y="0px" viewBox="0 0 300 300" style="enable-background:new 0 0 300 300;" xml:space="preserve">
<style type="text/css">
	.st0{fill:url(#SVGID_1_);}
	.st1{fill:#FFFFFF;}
</style>
<g>
	<linearGradient id="SVGID_1_" gradientUnits="userSpaceOnUse" x1="234.2051" y1="295.8474" x2="65.7949" y2="4.1525">
		<stop  offset="0" style="stop-color:#CCE0F4"/>
		<stop  offset="0.0262" style="stop-color:#C3DCF2"/>
		<stop  offset="0.0698" style="stop-color:#A9D2EE"/>
		<stop  offset="0.1255" style="stop-color:#80C2E7"/>
		<stop  offset="0.1903" style="stop-color:#47ACDE"/>
		<stop  offset="0.2322" style="stop-color:#1E9CD7"/>
		<stop  offset="0.4495" style="stop-color:#0075BE"/>
		<stop  offset="0.6307" style="stop-color:#0379C0"/>
		<stop  offset="0.8229" style="stop-color:#4087B7"/>
		<stop  offset="1" style="stop-color:#B0D5EF"/>
	</linearGradient>
	<path class="st0" d="M99.31,299.88c-54.69,0-99.18-44.49-99.18-99.18V99.31c0-54.69,44.49-99.18,99.18-99.18h101.38
		c54.69,0,99.18,44.49,99.18,99.18v101.38c0,54.69-44.49,99.18-99.18,99.18H99.31z"/>
	<path d="M200.69,0.25c54.62,0,99.06,44.44,99.06,99.06v101.38c0,54.62-44.44,99.06-99.06,99.06H99.31
		c-54.62,0-99.06-44.44-99.06-99.06V99.31c0-54.62,44.44-99.06,99.06-99.06H200.69 M200.69,0H99.31C44.46,0,0,44.46,0,99.31v101.38
		C0,255.54,44.46,300,99.31,300h101.38c54.85,0,99.31-44.46,99.31-99.31V99.31C300,44.46,255.54,0,200.69,0L200.69,0z"/>
</g>
<g>
	<path class="st1" d="M130.61,181.71c-4.24,0-8.16-0.7-11.73-2.11c-3.58-1.4-6.68-3.39-9.31-5.97c-2.63-2.57-4.68-5.58-6.16-9.03
		c-1.49-3.45-2.23-7.24-2.23-11.37c0-4.14,0.74-7.93,2.23-11.38c1.48-3.45,3.55-6.46,6.2-9.03c2.65-2.57,5.77-4.56,9.35-5.97
		c3.58-1.4,7.49-2.11,11.73-2.11c4.3,0,8.26,0.73,11.89,2.19c2.26,0.91,4.86,2.89,7.12,4.94c1.81,1.65,1.34,4.61-0.9,5.61
		l-0.05,0.02c-1.25,0.56-2.67,0.25-3.71-0.64c-1.69-1.46-3.53-2.59-5.52-3.41c-2.65-1.09-5.49-1.63-8.51-1.63
		c-3.13,0-6.03,0.53-8.71,1.59c-2.68,1.06-5,2.55-6.96,4.45c-1.96,1.91-3.49,4.18-4.57,6.8c-1.09,2.63-1.63,5.48-1.63,8.55
		c0,3.08,0.54,5.92,1.63,8.55c1.09,2.62,2.61,4.89,4.57,6.8c1.96,1.91,4.28,3.4,6.96,4.46c2.68,1.06,5.58,1.59,8.71,1.59
		c3.02,0,5.86-0.54,8.51-1.63c1.99-0.82,3.83-1.97,5.52-3.45c1.07-0.94,2.66-0.98,3.88-0.24l0.52,0.31c2,1.21,2.23,4.08,0.39,5.52
		c-2.29,1.79-4.95,3.41-7.24,4.34C138.95,180.97,134.96,181.71,130.61,181.71z"/>
	<path class="st1" d="M163.23,177.61v-48.76c0-1.91,1.55-3.46,3.46-3.46h1.03c1.91,0,3.46,1.55,3.46,3.46v41.84
		c0,1.91,1.55,3.46,3.46,3.46h23.23c1.91,0,3.46,1.55,3.46,3.46l0,0c0,1.91-1.55,3.46-3.46,3.46h-31.18
		C164.77,181.07,163.23,179.52,163.23,177.61z M58,177.66v-48.76c0-1.91,1.55-3.46,3.46-3.46h1.03c1.91,0,3.46,1.55,3.46,3.46v41.84
		c0,1.91,1.55,3.46,3.46,3.46h23.23c1.91,0,3.46,1.55,3.46,3.46l0,0c0,1.91-1.55,3.46-3.46,3.46H61.46
		C59.55,181.12,58,179.57,58,177.66z"/>
	<path class="st1" d="M221.54,177.61v-41.84c0-1.91-1.55-3.46-3.46-3.46H205.9c-1.91,0-3.46-1.55-3.46-3.46v0
		c0-1.91,1.55-3.46,3.46-3.46h39.14c1.91,0,3.46,1.55,3.46,3.46v0c0,1.91-1.55,3.46-3.46,3.46h-12.17c-1.91,0-3.46,1.55-3.46,3.46
		v41.84c0,1.91-1.55,3.46-3.46,3.46H225C223.09,181.07,221.54,179.52,221.54,177.61z"/>
</g>
</svg>
