<?xml version="1.0" encoding="utf-8"?>
<!-- Generator: Adobe Illustrator 26.5.1, SVG Export Plug-In . SVG Version: 6.00 Build 0)  -->
<svg version="1.1" id="레이어_1" xmlns="http://www.w3.org/2000/svg" xmlns:xlink="http://www.w3.org/1999/xlink" x="0px"
	 y="0px" viewBox="0 0 114 26" style="enable-background:new 0 0 114 26;" xml:space="preserve">
<style type="text/css">
	.st0{fill:#29ABE2;}
</style>
<g>
	<path class="st0" d="M50.16,22.94c-1.28,0-2.46-0.21-3.54-0.64c-1.08-0.42-2.02-1.02-2.81-1.8s-1.41-1.68-1.86-2.72
		c-0.45-1.04-0.67-2.18-0.67-3.43c0-1.25,0.22-2.39,0.67-3.43c0.45-1.04,1.07-1.95,1.87-2.72c0.8-0.78,1.74-1.38,2.82-1.8
		c1.08-0.42,2.26-0.64,3.54-0.64c1.3,0,2.49,0.22,3.59,0.66c0.68,0.27,1.47,0.87,2.15,1.49c0.55,0.5,0.4,1.39-0.27,1.69l-0.02,0.01
		c-0.38,0.17-0.81,0.08-1.12-0.19C54,8.98,53.45,8.63,52.85,8.39c-0.8-0.33-1.66-0.49-2.57-0.49c-0.94,0-1.82,0.16-2.63,0.48
		c-0.81,0.32-1.51,0.77-2.1,1.34c-0.59,0.58-1.05,1.26-1.38,2.05c-0.33,0.79-0.49,1.65-0.49,2.58c0,0.93,0.16,1.79,0.49,2.58
		c0.33,0.79,0.79,1.47,1.38,2.05s1.29,1.02,2.1,1.34c0.81,0.32,1.68,0.48,2.63,0.48c0.91,0,1.77-0.16,2.57-0.49
		c0.6-0.25,1.15-0.59,1.66-1.04c0.32-0.28,0.8-0.3,1.17-0.07l0.16,0.09c0.6,0.37,0.67,1.23,0.12,1.66
		c-0.69,0.54-1.49,1.03-2.19,1.31C52.67,22.72,51.47,22.94,50.16,22.94z"/>
	<path class="st0" d="M60,21.71V7c0-0.58,0.47-1.04,1.04-1.04h0.31c0.58,0,1.04,0.47,1.04,1.04v12.62c0,0.58,0.47,1.04,1.04,1.04
		h7.01c0.58,0,1.04,0.47,1.04,1.04v0c0,0.58-0.47,1.04-1.04,1.04h-9.41C60.47,22.75,60,22.28,60,21.71z M28.25,21.72V7.01
		c0-0.58,0.47-1.04,1.04-1.04h0.31c0.58,0,1.04,0.47,1.04,1.04v12.62c0,0.58,0.47,1.04,1.04,1.04h7.01c0.58,0,1.04,0.47,1.04,1.04v0
		c0,0.58-0.47,1.04-1.04,1.04H29.3C28.72,22.76,28.25,22.3,28.25,21.72z"/>
	<path class="st0" d="M77.59,21.71V9.08c0-0.58-0.47-1.04-1.04-1.04h-3.67c-0.58,0-1.04-0.47-1.04-1.04v0
		c0-0.58,0.47-1.04,1.04-1.04h11.81c0.58,0,1.04,0.47,1.04,1.04v0c0,0.58-0.47,1.04-1.04,1.04h-3.67c-0.58,0-1.04,0.47-1.04,1.04
		v12.62c0,0.58-0.47,1.04-1.04,1.04h-0.29C78.06,22.75,77.59,22.28,77.59,21.71z"/>
</g>
</svg>
